<svg width="256" height="256" viewBox="0 0 256 256" preserveAspectRatio="xMinYMin meet" xmlns="http://www.w3.org/2000/svg" xmlns:xlink="http://www.w3.org/1999/xlink">
  <defs/>
  <g>
    <path stroke="none" fill="#1abc9c" d="M115.5 209.8 L115.5 230.3 115.5 230.8 Q115.5 236.8 111.2 241 107 245.3 101.1 245.3 95.1 245.3 90.8 241 86.6 236.8 86.6 230.8 L86.6 230.3 86.6 209.8 86.6 209.4 86.6 208.9 86.6 188 86.6 187.5 86.6 139.3 115.5 139.3 115.5 208.9 115.5 209.4 115.5 209.8"/>
    <path stroke="none" fill="#3498db" d="M115.5 209.8 L115.5 209.4 115.5 208.9 115.5 139.3 115.5 117.9 144.4 117.9 144.4 150 144.4 208.9 144.4 209.4 144.4 209.8 Q144.3 215.5 140.1 219.6 135.9 223.9 130 223.9 124 223.9 119.7 219.6 115.6 215.5 115.5 209.8"/>
    <path stroke="none" fill="#8e44ad" d="M173.3 199.1 L173.3 241 173.3 241.5 Q173.3 247.5 169 251.7 164.8 256 158.9 256 152.9 256 148.6 251.7 144.5 247.6 144.4 241.9 L144.4 241.5 144.4 241 144.4 209.8 144.4 209.4 144.4 208.9 144.4 150 173.3 150 173.3 198.2 173.3 198.7 173.3 199.1"/>
    <path stroke="none" fill="#f39c12" d="M173.3 199.1 L173.3 198.7 173.3 198.2 173.3 150 173.3 107.2 202.2 107.2 202.2 198.2 202.2 198.7 Q202.2 204.7 197.9 208.9 193.7 213.2 187.7 213.2 181.8 213.2 177.5 208.9 173.4 204.8 173.3 199.1"/>
    <path stroke="none" fill="#e74c3c" d="M86.6 209.8 Q86.5 215.5 82.4 219.6 78.1 223.9 72.2 223.9 66.2 223.9 61.9 219.6 57.7 215.4 57.7 209.4 L57.7 208.9 57.7 117.9 86.6 117.9 86.6 139.3 86.6 187.5 86.6 188 86.6 208.9 86.6 209.4 86.6 209.8"/>
    <path stroke="none" fill="#95a5a6" d="M220.6 98.7 Q220.6 136.4 193.9 163.1 167.2 189.8 129.4 189.8 91.7 189.8 65 163.1 38.3 136.4 38.3 98.7 38.3 60.9 65 34.2 91.7 7.5 129.4 7.5 167.2 7.5 193.9 34.2 220.6 60.9 220.6 98.7"/>
    <path stroke="none" fill="#2c3e50" d="M220.6 98.7 Q220.6 60.9 193.9 34.2 167.2 7.5 129.4 7.5 91.7 7.5 65 34.2 38.3 60.9 38.3 98.7 38.3 136.4 65 163.1 91.7 189.8 129.4 189.8 167.2 189.8 193.9 163.1 220.6 136.4 220.6 98.7 M199.2 28.9 Q228.1 57.8 228.1 98.7 228.1 139.5 199.2 168.4 170.3 197.3 129.4 197.3 88.6 197.3 59.7 168.4 30.8 139.5 30.8 98.7 30.8 57.8 59.7 28.9 88.6 0 129.4 0 170.3 0 199.2 28.9"/>
    <path stroke="none" fill="#ecf0f1" d="M170.9 59.7 Q163.7 57.8 157.1 61.6 L157.2 61.6 Q150.6 65.3 148.6 72.6 L148.6 72.7 Q146.7 79.9 150.5 86.5 154.2 93 161.5 95 168.8 96.8 175.3 93.1 181.9 89.3 183.8 82.1 185.7 74.8 182 68.3 178.2 61.7 171 59.8 L170.9 59.7 M198 98.6 Q198 127.1 177.9 147.1 157.8 167.2 129.4 167.2 101 167.2 80.9 147.1 60.9 127.1 60.9 98.6 60.9 70.2 80.9 50.1 101 30.1 129.4 30.1 157.8 30.1 177.9 50.1 198 70.2 198 98.6 M182 129.1 Q185.7 122.5 183.8 115.2 181.8 107.9 175.3 104.2 168.8 100.4 161.5 102.4 156.6 103.7 153.3 107.1 151.7 108.7 150.5 110.9 146.7 117.3 148.5 124.6 L148.6 124.7 Q150.6 131.9 157.1 135.7 163.6 139.4 170.9 137.6 178.2 135.5 182 129.1 M129.4 37.9 Q121.9 37.9 116.5 43.2 111.2 48.6 111.2 56.1 111.2 63.6 116.5 69 121.9 74.3 129.4 74.3 136.9 74.3 142.3 69 147.6 63.6 147.6 56.1 147.6 48.6 142.3 43.2 136.9 37.9 129.4 37.9 M101.6 61.6 Q95.1 57.8 87.9 59.7 L87.8 59.8 Q80.5 61.7 76.8 68.2 L76.7 68.3 Q73 74.8 74.9 82.1 76.8 89.3 83.4 93.1 89.9 96.8 97.2 95 L97.3 95 Q102.2 93.6 105.4 90.3 L105.5 90.3 108.3 86.5 Q112 79.9 110.1 72.6 108.1 65.3 101.6 61.6 M112.5 91.8 L112.5 92 Q111.2 95 111.2 98.6 111.2 106.2 116.5 111.5 L116.5 111.6 Q121.9 116.8 129.4 116.8 136.9 116.8 142.3 111.6 L142.3 111.5 Q144.9 108.9 146.2 105.8 L146.3 105.7 146.3 105.5 Q147.5 102.5 147.6 98.9 L147.6 98.6 Q147.5 91.1 142.3 85.8 L142.3 85.7 Q136.9 80.4 129.4 80.4 121.9 80.4 116.5 85.7 L116.5 85.8 Q113.8 88.4 112.5 91.8 M76.7 129 L76.8 129 Q80.5 135.5 87.8 137.5 L87.9 137.5 Q95.1 139.4 101.7 135.6 108.2 131.9 110.2 124.6 112 117.3 108.3 110.8 104.6 104.2 97.3 102.3 L97.3 102.2 Q90 100.4 83.5 104.1 L83.4 104.1 Q76.9 107.9 75 115.1 L74.9 115.2 Q73 122.5 76.7 129 M142.3 128.3 Q136.9 123 129.4 123 121.9 123 116.5 128.3 111.2 133.7 111.2 141.1 111.2 148.7 116.5 154 L116.5 154.1 Q121.9 159.3 129.4 159.3 136.9 159.3 142.3 154.1 L142.3 154 Q147.6 148.7 147.6 141.1 147.6 133.7 142.3 128.3"/>
    <path stroke="none" fill="#7c7e8f" d="M169 67 Q173.3 68.2 175.5 72 177.7 75.9 176.6 80.2 L176.6 80.1 Q175.4 84.4 171.6 86.7 L171.6 86.6 Q167.7 88.8 163.4 87.7 159.1 86.6 157 82.8 L157 82.7 Q154.7 78.9 155.9 74.5 L155.9 74.6 Q157 70.3 160.9 68.1 164.7 65.9 169.1 67 L169 67 M171.5 110.7 L171.6 110.7 Q175.4 112.8 176.6 117.1 177.7 121.5 175.5 125.3 173.2 129.1 169 130.3 164.7 131.4 160.9 129.3 L160.8 129.2 Q157 127 155.8 122.7 154.7 118.5 156.9 114.7 L156.9 114.6 Q157.7 113.3 158.6 112.4 L158.6 112.3 Q160.6 110.3 163.5 109.6 167.7 108.4 171.5 110.7 M129.4 45.4 Q133.8 45.4 137 48.5 140.1 51.7 140.1 56.1 140.1 60.5 137 63.7 133.8 66.8 129.4 66.8 125 66.8 121.8 63.7 118.7 60.5 118.7 56.1 118.7 51.7 121.8 48.5 125 45.4 129.4 45.4 M97.9 68.1 Q101.7 70.2 102.9 74.5 104 78.9 101.8 82.7 L100.1 85 100.1 85.1 Q98.1 86.9 95.3 87.7 L95.4 87.7 Q91 88.8 87.1 86.6 L87.1 86.7 Q83.3 84.4 82.1 80.1 L82.1 80.2 Q81 75.9 83.3 72 85.5 68.1 89.7 67 94 65.9 97.9 68.1 M129.4 130.4 Q133.8 130.4 137 133.5 L137 133.6 Q140.1 136.8 140.1 141.1 140.1 145.6 137 148.7 L137 148.8 Q133.8 151.9 129.4 151.9 125 151.9 121.8 148.8 L121.8 148.7 Q118.7 145.6 118.7 141.1 118.7 136.8 121.8 133.6 L121.8 133.5 Q125 130.4 129.4 130.4 M103 122.7 Q101.8 127 98 129.1 94 131.4 89.7 130.2 L89.7 130.3 Q85.5 129.1 83.3 125.3 81.1 121.4 82.2 117.1 83.3 112.8 87.2 110.6 91 108.4 95.4 109.5 99.6 110.6 101.8 114.5 104 118.4 102.9 122.7 L103 122.7"/>
    <path stroke="none" fill="#2c3e50" d="M103 122.7 L102.9 122.7 Q104 118.4 101.8 114.5 99.6 110.6 95.4 109.5 91 108.4 87.2 110.6 83.3 112.8 82.2 117.1 81.1 121.4 83.3 125.3 85.5 129.1 89.7 130.3 L89.7 130.2 Q94 131.4 98 129.1 101.8 127 103 122.7 M169 67 L169.1 67 Q164.7 65.9 160.9 68.1 157 70.3 155.9 74.6 L155.9 74.5 Q154.7 78.9 157 82.7 L157 82.8 Q159.1 86.6 163.4 87.7 167.7 88.8 171.6 86.6 L171.6 86.7 Q175.4 84.4 176.6 80.1 L176.6 80.2 Q177.7 75.9 175.5 72 173.3 68.2 169 67 M198 98.6 Q198 70.2 177.9 50.1 157.8 30.1 129.4 30.1 101 30.1 80.9 50.1 60.9 70.2 60.9 98.6 60.9 127.1 80.9 147.1 101 167.2 129.4 167.2 157.8 167.2 177.9 147.1 198 127.1 198 98.6 M170.9 59.7 L171 59.8 Q178.2 61.7 182 68.3 185.7 74.8 183.8 82.1 181.9 89.3 175.3 93.1 168.8 96.8 161.5 95 154.2 93 150.5 86.5 146.7 79.9 148.6 72.7 L148.6 72.6 Q150.6 65.3 157.2 61.6 L157.1 61.6 Q163.7 57.8 170.9 59.7 M183.2 44.8 Q205.5 67.1 205.5 98.6 205.5 130.2 183.2 152.4 160.9 174.7 129.4 174.7 97.9 174.7 75.6 152.4 53.4 130.2 53.4 98.6 53.4 67.1 75.6 44.8 97.9 22.6 129.4 22.6 160.9 22.6 183.2 44.8 M171.5 110.7 Q167.7 108.4 163.5 109.6 160.6 110.3 158.6 112.3 L158.6 112.4 Q157.7 113.3 156.9 114.6 L156.9 114.7 Q154.7 118.5 155.8 122.7 157 127 160.8 129.2 L160.9 129.3 Q164.7 131.4 169 130.3 173.2 129.1 175.5 125.3 177.7 121.5 176.6 117.1 175.4 112.8 171.6 110.7 L171.5 110.7 M182 129.1 Q178.2 135.5 170.9 137.6 163.6 139.4 157.1 135.7 150.6 131.9 148.6 124.7 L148.5 124.6 Q146.7 117.3 150.5 110.9 151.7 108.7 153.3 107.1 156.6 103.7 161.5 102.4 168.8 100.4 175.3 104.2 181.8 107.9 183.8 115.2 185.7 122.5 182 129.1 M129.4 45.4 Q125 45.4 121.8 48.5 118.7 51.7 118.7 56.1 118.7 60.5 121.8 63.7 125 66.8 129.4 66.8 133.8 66.8 137 63.7 140.1 60.5 140.1 56.1 140.1 51.7 137 48.5 133.8 45.4 129.4 45.4 M101.6 61.6 Q108.1 65.3 110.1 72.6 112 79.9 108.3 86.5 L105.5 90.3 105.4 90.3 Q102.2 93.6 97.3 95 L97.2 95 Q89.9 96.8 83.4 93.1 76.8 89.3 74.9 82.1 73 74.8 76.7 68.3 L76.8 68.2 Q80.5 61.7 87.8 59.8 L87.9 59.7 Q95.1 57.8 101.6 61.6 M129.4 37.9 Q136.9 37.9 142.3 43.2 147.6 48.6 147.6 56.1 147.6 63.6 142.3 69 136.9 74.3 129.4 74.3 121.9 74.3 116.5 69 111.2 63.6 111.2 56.1 111.2 48.6 116.5 43.2 121.9 37.9 129.4 37.9 M97.9 68.1 Q94 65.9 89.7 67 85.5 68.1 83.3 72 81 75.9 82.1 80.2 L82.1 80.1 Q83.3 84.4 87.1 86.7 L87.1 86.6 Q91 88.8 95.4 87.7 L95.3 87.7 Q98.1 86.9 100.1 85.1 L100.1 85 101.8 82.7 Q104 78.9 102.9 74.5 101.7 70.2 97.9 68.1 M112.5 91.8 Q113.8 88.4 116.5 85.8 L116.5 85.7 Q121.9 80.4 129.4 80.4 136.9 80.4 142.3 85.7 L142.3 85.8 Q147.5 91.1 147.6 98.6 L147.6 98.9 Q147.5 102.5 146.3 105.5 L146.3 105.7 146.2 105.8 Q144.9 108.9 142.3 111.5 L142.3 111.6 Q136.9 116.8 129.4 116.8 121.9 116.8 116.5 111.6 L116.5 111.5 Q111.2 106.2 111.2 98.6 111.2 95 112.5 92 L112.5 91.8 M129.4 87.9 Q125 87.9 121.8 91.1 L121.5 91.4 140.1 99 140.1 98.6 Q140.1 94.2 137 91.1 L137 91 Q133.8 87.9 129.4 87.9 M118.7 98.3 L118.7 98.6 Q118.7 103 121.8 106.2 L121.8 106.3 Q125 109.3 129.4 109.3 133.8 109.3 137 106.3 L137 106.2 137.2 106 118.7 98.3 M76.7 129 Q73 122.5 74.9 115.2 L75 115.1 Q76.9 107.9 83.4 104.1 L83.5 104.1 Q90 100.4 97.3 102.2 L97.3 102.3 Q104.6 104.2 108.3 110.8 112 117.3 110.2 124.6 108.2 131.9 101.7 135.6 95.1 139.4 87.9 137.5 L87.8 137.5 Q80.5 135.5 76.8 129 L76.7 129 M129.4 130.4 Q125 130.4 121.8 133.5 L121.8 133.6 Q118.7 136.8 118.7 141.1 118.7 145.6 121.8 148.7 L121.8 148.8 Q125 151.9 129.4 151.9 133.8 151.9 137 148.8 L137 148.7 Q140.1 145.6 140.1 141.1 140.1 136.8 137 133.6 L137 133.5 Q133.8 130.4 129.4 130.4 M142.3 128.3 Q147.6 133.7 147.6 141.1 147.6 148.7 142.3 154 L142.3 154.1 Q136.9 159.3 129.4 159.3 121.9 159.3 116.5 154.1 L116.5 154 Q111.2 148.7 111.2 141.1 111.2 133.7 116.5 128.3 121.9 123 129.4 123 136.9 123 142.3 128.3"/>
  </g>
</svg>